<svg width="89" height="72" viewBox="0 0 89 72" fill="none" xmlns="http://www.w3.org/2000/svg">
<path d="M35.0907 1.71975C34.5599 4.78089 32.5287 7.9333 28.1869 12.4344C21.8037 19.052 11.8566 26.1213 5.91824 28.2607C4.08889 28.9197 3.56833 29.321 3.56833 30.0731C3.56833 31.652 4.73523 35.1465 5.74994 36.6067C6.62769 37.8697 6.9616 37.9903 10.3916 38.2802C15.7051 38.7296 24.0018 40.5085 30.1528 42.5181L35.4761 44.2571L29.7052 47.6319C20.2836 53.1415 12.7012 58.58 5.70205 64.85C2.33742 67.8634 -0.435479 71.2607 0.0568843 71.7652C0.151328 71.862 2.54109 70.4908 5.36725 68.7183C15.8407 62.1493 29.4049 54.7319 39.1125 50.2647L44.4439 47.8117L47.6169 49.2191C56.2306 53.0397 75.4672 63.5806 85.139 69.7799C87.0445 71.0007 88.7113 72 88.8434 72C89.6491 72 87.2387 68.882 84.0786 65.8364C77.3776 59.3775 68.0509 52.721 55.826 45.6714C54.6564 44.9973 53.6998 44.38 53.6998 44.2997C53.6998 44.1167 59.802 42.0407 63.1281 41.0914C66.9896 39.9894 74.5796 38.6021 78.6121 38.2614L82.2632 37.9527L83.3804 35.8299C85.34 32.1074 85.818 28.8917 84.4121 28.8917C83.5017 28.8917 77.7791 25.9117 74.2896 23.621C62.4191 15.8272 53.6998 6.3759 53.6998 1.30242C53.6998 -0.476486 52.7608 -0.36275 51.0599 1.62206C47.2893 6.02186 46.4849 10.4492 48.7297 14.4459C50.9995 18.4866 57.2538 24.175 64.6124 28.8917C65.9897 29.7745 67.119 30.6005 67.1221 30.7275C67.1252 30.8541 64.5421 31.8506 61.3812 32.9416C58.2206 34.0326 53.0853 36.0179 49.9695 37.3529L44.3047 39.7798L39.0713 37.473C36.1932 36.2041 31.0185 34.2023 27.5719 33.0251L21.3059 30.8839L26.8222 27.0537C32.9535 22.796 38.7714 17.2832 40.2042 14.3734C41.8921 10.9458 41.9171 9.08714 40.3201 5.76321C38.8958 2.79975 36.7294 0 35.8602 0C35.601 0 35.2546 0.774115 35.0907 1.71975Z" fill="#00FF84"/>
<path d="M35.0907 1.71975C34.5599 4.78089 32.5287 7.9333 28.1869 12.4344C21.8037 19.052 11.8566 26.1213 5.91824 28.2607C4.08889 28.9197 3.56833 29.321 3.56833 30.0731C3.56833 31.652 4.73523 35.1465 5.74994 36.6067C6.62769 37.8697 6.9616 37.9903 10.3916 38.2802C15.7051 38.7296 24.0018 40.5085 30.1528 42.5181L35.4761 44.2571L29.7052 47.6319C20.2836 53.1415 12.7012 58.58 5.70205 64.85C2.33742 67.8634 -0.435479 71.2607 0.0568843 71.7652C0.151328 71.862 2.54109 70.4908 5.36725 68.7183C15.8407 62.1493 29.4049 54.7319 39.1125 50.2647L44.4439 47.8117L47.6169 49.2191C56.2306 53.0397 75.4672 63.5806 85.139 69.7799C87.0445 71.0007 88.7113 72 88.8434 72C89.6491 72 87.2387 68.882 84.0786 65.8364C77.3776 59.3775 68.0509 52.721 55.826 45.6714C54.6564 44.9973 53.6998 44.38 53.6998 44.2997C53.6998 44.1167 59.802 42.0407 63.1281 41.0914C66.9896 39.9894 74.5796 38.6021 78.6121 38.2614L82.2632 37.9527L83.3804 35.8299C85.34 32.1074 85.818 28.8917 84.4121 28.8917C83.5017 28.8917 77.7791 25.9117 74.2896 23.621C62.4191 15.8272 53.6998 6.3759 53.6998 1.30242C53.6998 -0.476486 52.7608 -0.36275 51.0599 1.62206C47.2893 6.02186 46.4849 10.4492 48.7297 14.4459C50.9995 18.4866 57.2538 24.175 64.6124 28.8917C65.9897 29.7745 67.119 30.6005 67.1221 30.7275C67.1252 30.8541 64.5421 31.8506 61.3812 32.9416C58.2206 34.0326 53.0853 36.0179 49.9695 37.3529L44.3047 39.7798L39.0713 37.473C36.1932 36.2041 31.0185 34.2023 27.5719 33.0251L21.3059 30.8839L26.8222 27.0537C32.9535 22.796 38.7714 17.2832 40.2042 14.3734C41.8921 10.9458 41.9171 9.08714 40.3201 5.76321C38.8958 2.79975 36.7294 0 35.8602 0C35.601 0 35.2546 0.774115 35.0907 1.71975Z" fill="black"/>
<path d="M11.6668 4.82629C10.828 6.5066 8.85496 9.74385 7.28164 12.0208C5.70876 14.2982 4.51009 16.2514 4.61796 16.3623C5.85558 17.6299 19.2344 6.60611 19.2344 4.31908C19.2344 3.50966 17.1159 2.39434 14.9173 2.04535L13.1918 1.77157L11.6668 4.82629Z" fill="black"/>
<path d="M11.6668 4.82629C10.828 6.5066 8.85496 9.74385 7.28164 12.0208C5.70876 14.2982 4.51009 16.2514 4.61796 16.3623C5.85558 17.6299 19.2344 6.60611 19.2344 4.31908C19.2344 3.50966 17.1159 2.39434 14.9173 2.04535L13.1918 1.77157L11.6668 4.82629Z" fill="#00FF84"/>
<path d="M21.98 4.08978C21.421 5.35735 19.4493 8.58405 17.5993 11.2604C15.7489 13.9364 14.3309 16.2243 14.4482 16.3449C15.2427 17.1589 21.8901 12.6271 26.0819 8.41345C30.1756 4.29844 29.8999 2.92861 24.8084 2.08525L22.9965 1.78532L21.98 4.08978Z" fill="black"/>
<path d="M21.98 4.08978C21.421 5.35735 19.4493 8.58405 17.5993 11.2604C15.7489 13.9364 14.3309 16.2243 14.4482 16.3449C15.2427 17.1589 21.8901 12.6271 26.0819 8.41345C30.1756 4.29844 29.8999 2.92861 24.8084 2.08525L22.9965 1.78532L21.98 4.08978Z" fill="#00FF84"/>
</svg>
